<?xml version="1.0" standalone="no"?>
<!DOCTYPE svg PUBLIC "-//W3C//DTD SVG 20010904//EN"
 "http://www.w3.org/TR/2001/REC-SVG-20010904/DTD/svg10.dtd">
<svg version="1.0" xmlns="http://www.w3.org/2000/svg"
 width="50.000000pt" height="50.000000pt" viewBox="0 0 50.000000 50.000000"
 preserveAspectRatio="xMidYMid meet">

<g transform="translate(0.000000,50.000000) scale(0.100000,-0.100000)"
fill="#000000" stroke="none">
<path d="M117 490 c-53 -14 -95 -37 -107 -59 -14 -27 -13 -326 1 -353 6 -11
31 -29 56 -40 54 -24 196 -37 207 -19 5 8 -9 11 -48 11 -124 0 -206 36 -206
90 l0 29 45 -20 c53 -24 175 -38 175 -20 0 6 -15 11 -35 11 -55 0 -132 20
-160 41 -18 15 -25 30 -25 54 l0 34 48 -22 c65 -29 205 -31 277 -2 28 10 56
18 63 17 16 -4 17 160 1 190 -26 49 -195 82 -292 58z m182 -21 c57 -12 101
-42 101 -69 0 -75 -262 -107 -349 -42 -97 72 75 148 248 111z m-89 -164 c76 0
104 5 143 22 l47 22 0 -34 c0 -26 -7 -38 -30 -55 -46 -32 -145 -47 -227 -33
-84 15 -117 38 -121 86 l-3 36 48 -22 c39 -17 66 -22 143 -22z"/>
<path d="M367 198 c-5 -18 -8 -19 -21 -8 -21 17 -49 -5 -41 -31 4 -12 1 -21
-9 -25 -21 -8 -21 -44 0 -44 12 0 15 -6 11 -22 -8 -30 10 -49 39 -42 18 5 24
2 24 -10 0 -21 36 -21 44 0 4 10 13 13 25 9 22 -7 44 16 35 39 -4 10 0 18 10
22 23 9 20 41 -5 49 -16 5 -18 9 -8 21 18 22 -13 53 -35 35 -12 -10 -16 -8
-21 8 -8 28 -41 27 -48 -1z m49 -32 c9 -3 21 -3 26 1 6 3 8 1 5 -5 -10 -16 3
-42 21 -42 12 0 11 -4 -6 -20 -12 -12 -19 -27 -15 -36 4 -10 1 -15 -8 -14 -28
4 -39 0 -39 -17 0 -14 -3 -13 -20 5 -13 13 -26 19 -37 15 -12 -5 -15 -2 -10
10 4 11 -2 24 -15 37 -18 17 -19 20 -5 20 17 0 21 11 17 39 -1 9 4 12 15 8 9
-4 22 2 33 14 13 15 18 17 20 5 2 -8 10 -17 18 -20z"/>
<path d="M360 135 c-26 -32 13 -81 48 -59 22 14 27 41 12 59 -16 19 -44 19
-60 0z m46 -16 c10 -17 -13 -36 -27 -22 -12 12 -4 33 11 33 5 0 12 -5 16 -11z"/>
</g>
</svg>
