<?xml version="1.0" standalone="no"?>
<!DOCTYPE svg PUBLIC "-//W3C//DTD SVG 20010904//EN"
 "http://www.w3.org/TR/2001/REC-SVG-20010904/DTD/svg10.dtd">
<svg version="1.0" xmlns="http://www.w3.org/2000/svg"
 width="256.000000pt" height="256.000000pt" viewBox="0 0 256.000000 256.000000"
 preserveAspectRatio="xMidYMid meet">

<g transform="translate(0.000000,256.000000) scale(0.100000,-0.100000)"
fill="#000000" stroke="none">
<path d="M886 2235 c-57 -20 -108 -66 -138 -125 -25 -46 -28 -63 -28 -146 0
-83 2 -94 21 -107 21 -16 54 -12 67 7 4 6 9 52 12 101 4 72 10 97 28 122 45
63 43 63 540 63 l449 0 33 -22 c18 -13 43 -36 54 -51 21 -28 21 -33 21 -797 0
-764 0 -769 -21 -797 -11 -15 -36 -38 -54 -50 l-33 -23 -449 0 c-497 0 -495 0
-540 63 -18 25 -24 50 -28 122 -3 49 -8 95 -12 101 -13 19 -46 23 -67 7 -19
-13 -21 -24 -21 -107 0 -83 3 -100 28 -147 31 -60 93 -113 150 -129 56 -15
923 -14 976 2 25 8 61 32 93 63 87 84 83 47 83 895 0 848 4 811 -83 895 -32
31 -68 55 -93 63 -63 18 -935 16 -988 -3z"/>
<path d="M783 1567 c-150 -150 -273 -279 -273 -287 0 -8 123 -137 273 -287
226 -228 276 -273 297 -271 39 5 49 39 49 177 l0 126 292 3 c195 1 297 6 306
13 19 17 19 461 0 478 -9 7 -111 12 -306 13 l-292 3 0 126 c0 138 -10 172 -49
177 -21 2 -71 -43 -297 -271z"/>
</g>
</svg>
