<?xml version="1.0" standalone="no"?>
<!DOCTYPE svg PUBLIC "-//W3C//DTD SVG 20010904//EN"
 "http://www.w3.org/TR/2001/REC-SVG-20010904/DTD/svg10.dtd">
<svg version="1.0" xmlns="http://www.w3.org/2000/svg"
 width="50.000000pt" height="50.000000pt" viewBox="0 0 50.000000 50.000000"
 preserveAspectRatio="xMidYMid meet">

<g transform="translate(0.000000,50.000000) scale(0.100000,-0.100000)"
fill="#000000" stroke="none">
<path d="M30 250 c0 -100 4 -160 10 -160 6 0 10 60 10 160 0 100 -4 160 -10
160 -6 0 -10 -60 -10 -160z"/>
<path d="M70 250 c0 -136 2 -160 15 -160 13 0 15 24 15 160 0 136 -2 160 -15
160 -13 0 -15 -24 -15 -160z"/>
<path d="M120 250 l0 -160 40 0 40 0 0 160 0 160 -40 0 -40 0 0 -160z"/>
<path d="M220 250 c0 -100 4 -160 10 -160 6 0 10 60 10 160 0 100 -4 160 -10
160 -6 0 -10 -60 -10 -160z"/>
<path d="M260 250 c0 -136 2 -160 15 -160 13 0 15 24 15 160 0 136 -2 160 -15
160 -13 0 -15 -24 -15 -160z"/>
<path d="M310 250 c0 -100 4 -160 10 -160 6 0 10 60 10 160 0 100 -4 160 -10
160 -6 0 -10 -60 -10 -160z"/>
<path d="M350 250 c0 -153 1 -160 20 -160 19 0 20 7 20 160 0 153 -1 160 -20
160 -19 0 -20 -7 -20 -160z"/>
<path d="M410 250 c0 -100 4 -160 10 -160 6 0 10 60 10 160 0 100 -4 160 -10
160 -6 0 -10 -60 -10 -160z"/>
<path d="M450 250 c0 -100 4 -160 10 -160 6 0 10 60 10 160 0 100 -4 160 -10
160 -6 0 -10 -60 -10 -160z"/>
</g>
</svg>
