<?xml version="1.0" standalone="no"?>
<!DOCTYPE svg PUBLIC "-//W3C//DTD SVG 20010904//EN"
 "http://www.w3.org/TR/2001/REC-SVG-20010904/DTD/svg10.dtd">
<svg version="1.0" xmlns="http://www.w3.org/2000/svg"
 width="64.000000pt" height="64.000000pt" viewBox="0 0 64.000000 64.000000"
 preserveAspectRatio="xMidYMid meet">

<g transform="translate(0.000000,64.000000) scale(0.100000,-0.100000)"
fill="#000000" stroke="none">
<path d="M534 567 c-11 -7 -64 -58 -117 -113 -68 -71 -95 -107 -91 -118 3 -9
10 -16 14 -16 4 0 36 30 71 66 35 36 81 77 101 90 39 25 73 77 63 94 -8 13
-15 12 -41 -3z"/>
<path d="M242 338 c-5 -7 -13 -23 -16 -35 -4 -12 -17 -25 -29 -29 -31 -9 -137
-115 -137 -137 0 -24 53 -77 76 -77 19 0 130 114 140 143 3 9 9 17 13 17 5 0
21 10 35 21 l28 22 -43 43 c-47 48 -52 50 -67 32z"/>
</g>
</svg>
