<?xml version="1.0" standalone="no"?>
<!DOCTYPE svg PUBLIC "-//W3C//DTD SVG 20010904//EN"
 "http://www.w3.org/TR/2001/REC-SVG-20010904/DTD/svg10.dtd">
<svg version="1.0" xmlns="http://www.w3.org/2000/svg"
 width="50.000000pt" height="50.000000pt" viewBox="0 0 50.000000 50.000000"
 preserveAspectRatio="xMidYMid meet">

<g transform="translate(0.000000,50.000000) scale(0.100000,-0.100000)"
fill="#000000" stroke="none">
<path d="M210 475 c-7 -8 -26 -15 -42 -15 -38 0 -45 -22 -19 -59 24 -33 28
-71 8 -71 -23 0 -86 -71 -103 -116 -32 -84 2 -156 82 -174 21 -5 73 -10 114
-10 41 0 93 5 114 10 116 26 128 165 21 258 -36 32 -32 42 7 21 16 -9 19 -8
16 3 -3 7 -15 19 -29 26 -23 13 -23 13 9 8 17 -3 32 -1 32 4 0 16 -50 23 -77
11 -34 -16 -37 -10 -19 34 24 56 21 69 -13 62 -17 -4 -36 0 -47 8 -25 19 -39
19 -54 0z m51 -21 c7 -9 21 -13 33 -10 19 5 19 5 -1 -15 -18 -18 -23 -19 -41
-8 -17 11 -25 11 -47 -1 -22 -12 -28 -12 -42 3 -16 16 -15 17 14 17 17 0 36 7
43 15 16 19 24 19 41 -1z m-15 -55 c3 -6 16 -9 28 -7 19 4 21 1 18 -24 -5 -30
-30 -43 -73 -36 -33 4 -42 49 -14 65 27 15 33 15 41 2z m139 -130 c45 -48 63
-97 51 -143 -9 -35 -31 -54 -79 -67 -51 -14 -212 -7 -248 11 -51 24 -62 86
-28 157 34 70 70 88 173 88 l88 0 43 -46z"/>
<path d="M213 248 c-26 -37 -20 -54 28 -77 40 -20 47 -36 20 -51 -17 -8 -24
-7 -41 10 -22 22 -30 25 -30 11 0 -17 51 -66 58 -56 4 6 16 15 27 21 34 19 25
56 -19 79 -21 11 -38 23 -37 28 0 4 1 12 1 17 0 14 33 13 48 -2 6 -6 15 -8 19
-4 6 5 -39 56 -49 56 -2 0 -13 -15 -25 -32z"/>
</g>
</svg>
