<?xml version="1.0" standalone="no"?>
<!DOCTYPE svg PUBLIC "-//W3C//DTD SVG 20010904//EN"
 "http://www.w3.org/TR/2001/REC-SVG-20010904/DTD/svg10.dtd">
<svg version="1.0" xmlns="http://www.w3.org/2000/svg"
 width="50.000000pt" height="50.000000pt" viewBox="0 0 50.000000 50.000000"
 preserveAspectRatio="xMidYMid meet">

<g transform="translate(0.000000,50.000000) scale(0.100000,-0.100000)"
fill="#000000" stroke="none">
<path d="M322 479 c-24 -12 -48 -32 -54 -45 -37 -81 92 -207 170 -165 25 13 62 88 62 124 0 35 -7 34 -47 -5 l-33 -32 -32 32 -32 32 32 33 c18 18 32 36 32 40 0 15 -57 6 -98 -14z"/>
<path d="M68 342 c-69 -70 -71 -72 -65 -113 5 -35 17 -53 68 -105 61 -61 98 -79 114 -54 3 5 17 10 31 10 14 0 27 7 30 15 4 8 12 15 20 15 8 0 23 9 33 19 10 10 28 22 40 26 12 3 24 18 27 32 6 21 -3 35 -57 89 -34 35 -63 73 -64 84 -2 30 -17 41 -64 47 -41 6 -43 4 -113 -65z"/>
<path d="M16 109 c-22 -33 -20 -62 7 -87 28 -27 57 -28 86 -4 l22 17 -49 48 -50 49 -16 -23z"/>
</g>
</svg>
